<svg xmlns="http://www.w3.org/2000/svg" x="0px" y="0px" width="50" height="50" viewBox="0 0 48 48">
<path fill="#23e20a" d="M 20.925781 8.0019531 C 18.981606 8.0019531 17.111306 8.7571988 15.712891 10.109375 L 5.8046875 19.685547 C 3.3789889 22.030389 3.3789889 25.969611 5.8046875 28.314453 L 15.712891 37.892578 C 17.110904 39.243116 18.981581 40.000704 20.925781 40.001953 L 37.5 40.001953 C 41.071938 40.001953 44 37.073891 44 33.501953 L 44 14.501953 C 44 10.930015 41.071938 8.0019531 37.5 8.0019531 L 20.925781 8.0019531 z M 20.925781 11.001953 L 37.5 11.001953 C 39.450062 11.001953 41 12.551891 41 14.501953 L 41 33.501953 C 41 35.452015 39.450062 37.001953 37.5 37.001953 L 20.927734 37.001953 L 20.925781 37.001953 C 19.758684 37.000653 18.638347 36.545385 17.798828 35.734375 L 17.798828 35.736328 L 7.8886719 26.158203 C 6.6543705 24.965045 6.6543705 23.036908 7.8886719 21.84375 L 17.798828 12.265625 C 18.638413 11.453801 19.757956 11.001953 20.925781 11.001953 z M 34.486328 15.978516 A 1.50015 1.50015 0 0 0 33.439453 16.439453 L 28 21.878906 L 22.560547 16.439453 A 1.50015 1.50015 0 0 0 21.484375 15.984375 A 1.50015 1.50015 0 0 0 20.439453 18.560547 L 25.878906 24 L 20.439453 29.439453 A 1.50015 1.50015 0 1 0 22.560547 31.560547 L 28 26.121094 L 33.439453 31.560547 A 1.50015 1.50015 0 1 0 35.560547 29.439453 L 30.121094 24 L 35.560547 18.560547 A 1.50015 1.50015 0 0 0 34.486328 15.978516 z"></path>
</svg>